<svg width="120" height="40" viewBox="0 0 120 40" fill="none" xmlns="http://www.w3.org/2000/svg">
  <!-- Letter A with arrow -->
  <defs>
    <linearGradient id="arrowGradient" x1="0%" y1="0%" x2="100%" y2="0%">
      <stop offset="0%" stopColor="#3B82F6" />
      <stop offset="100%" stopColor="#8B5CF6" />
    </linearGradient>
  </defs>

  <!-- A -->
  <path d="M 8 35 L 15 10 L 22 35 M 10 25 L 20 25" stroke="#FFFFFF" strokeWidth="3" strokeLinecap="round" strokeLinejoin="round" fill="none"/>

  <!-- Arrow (replacing horizontal bar of A) -->
  <path d="M 9 17 L 21 17 M 18 14 L 21 17 L 18 20" stroke="url(#arrowGradient)" strokeWidth="2.5" strokeLinecap="round" strokeLinejoin="round" fill="none"/>

  <!-- U -->
  <path d="M 30 10 L 30 25 Q 30 30 35 30 Q 40 30 40 25 L 40 10" stroke="#FFFFFF" strokeWidth="3" strokeLinecap="round" strokeLinejoin="round" fill="none"/>

  <!-- R -->
  <path d="M 50 35 L 50 10 L 57 10 Q 62 10 62 15 Q 62 20 57 20 L 50 20 M 55 20 L 62 35" stroke="#FFFFFF" strokeWidth="3" strokeLinecap="round" strokeLinejoin="round" fill="none"/>

  <!-- A -->
  <path d="M 70 35 L 77 10 L 84 35 M 72 25 L 82 25" stroke="#FFFFFF" strokeWidth="3" strokeLinecap="round" strokeLinejoin="round" fill="none"/>
</svg>
